<?xml version="1.0" encoding="UTF-8" standalone="no"?>
<!-- Created with Inkscape (http://www.inkscape.org/) -->

<svg
   xmlns:dc="http://purl.org/dc/elements/1.1/"
   xmlns:cc="http://creativecommons.org/ns#"
   xmlns:rdf="http://www.w3.org/1999/02/22-rdf-syntax-ns#"
   xmlns:svg="http://www.w3.org/2000/svg"
   xmlns="http://www.w3.org/2000/svg"
   xmlns:sodipodi="http://sodipodi.sourceforge.net/DTD/sodipodi-0.dtd"
   xmlns:inkscape="http://www.inkscape.org/namespaces/inkscape"
   width="72"
   height="72"
   viewBox="0 0 0.75 0.75"
   version="1.1"
   id="svg80330"
   sodipodi:docname="library-item-no-thumb-filler.svg"
   inkscape:version="0.92.2 5c3e80d, 2017-08-06">
  <defs
     id="defs80323" />
  <sodipodi:namedview
     inkscape:document-units="px"
     pagecolor="#ffffff"
     bordercolor="#666666"
     borderopacity="1.0"
     inkscape:pageopacity="0.0"
     inkscape:pageshadow="2"
     inkscape:zoom="1"
     inkscape:cx="68.999847"
     inkscape:cy="-247.61716"
     inkscape:current-layer="layer1"
     id="namedview80325"
     showgrid="false"
     inkscape:window-width="1280"
     inkscape:window-height="1376"
     inkscape:window-x="1280"
     inkscape:window-y="27"
     inkscape:window-maximized="0"
     units="px"
     width="1080px"
     inkscape:pagecheckerboard="false"
     objecttolerance="2"
     inkscape:snap-path-clip="false"
     inkscape:snap-path-mask="false"
     gridtolerance="2"
     guidetolerance="10"
     inkscape:snap-perpendicular="true"
     inkscape:snap-tangential="true"
     fit-margin-top="0"
     fit-margin-left="0"
     fit-margin-right="0"
     fit-margin-bottom="0" />
  <metadata
     id="metadata80327">
    <rdf:RDF>
      <cc:Work
         rdf:about="">
        <dc:format>image/svg+xml</dc:format>
        <dc:type
           rdf:resource="http://purl.org/dc/dcmitype/StillImage" />
        <dc:title></dc:title>
        <dc:creator>
          <cc:Agent>
            <dc:title>Máirín Duffy &lt;duffy@redhat.com&gt;</dc:title>
          </cc:Agent>
        </dc:creator>
      </cc:Work>
    </rdf:RDF>
  </metadata>
  <g
     inkscape:label="Layer 1"
     inkscape:groupmode="layer"
     id="layer1"
     transform="translate(-8.5833349,2.9855955)">
    <rect
       inkscape:export-ydpi="226.66672"
       inkscape:export-xdpi="226.66672"
       inkscape:export-filename="/home/duffy/library-missing-thumb.png"
       y="-2.9855955"
       x="8.5833349"
       height="0.75"
       width="0.75"
       id="rect817585"
       style="opacity:1;fill:#58595b;fill-opacity:1;stroke:none;stroke-width:0.01041667;stroke-linecap:round;stroke-linejoin:round;stroke-miterlimit:4;stroke-dasharray:none;stroke-dashoffset:5.99999952" />
    <g
       id="use819155"
       style="fill:#e7e8e9;fill-opacity:1;stroke-width:0.01486988"
       transform="matrix(0.00729709,0,0,0.00729709,8.6781267,-2.9375051)">
      <title
         id="title918616">Globe</title>
      <path
         inkscape:connector-curvature="0"
         id="path918618"
         d="m 768,1408 q 209,0 385.5,-103 Q 1330,1202 1433,1025.5 1536,849 1536,640 1536,431 1433,254.5 1330,78 1153.5,-25 977,-128 768,-128 559,-128 382.5,-25 206,78 103,254.5 0,431 0,640 0,849 103,1025.5 206,1202 382.5,1305 559,1408 768,1408 Z m 274,-521 q -2,-1 -9.5,-9.5 -7.5,-8.5 -13.5,-9.5 2,0 4.5,5 2.5,5 5,11 2.5,6 3.5,7 6,7 22,15 14,6 52,12 34,8 51,-11 -2,2 9.5,13 11.5,11 14.5,12 3,2 15,4.5 12,2.5 15,7.5 l 2,22 q -12,-1 -17.5,7 -5.5,8 -6.5,21 0,-2 -6,-8 0,7 -4.5,8 -4.5,1 -11.5,-1 -7,-2 -9,-1 -10,3 -15,7.5 -5,4.5 -8,16.5 -3,12 -4,15 -2,5 -9.5,10.5 -7.5,5.5 -9.5,10.5 -1,2 -2.5,5.5 -1.5,3.5 -3,6.5 -1.5,3 -4,5.5 -2.5,2.5 -5.5,2.5 -3,0 -7,-5 -4,-5 -7.5,-10 -3.5,-5 -4.5,-5 -3,2 -6,1.5 -3,-0.5 -4.5,-1 -1.5,-0.5 -4.5,-3 -3,-2.5 -5,-3.5 -3,-2 -8.5,-3 -5.5,-1 -8.5,-2 15,5 -1,11 -10,4 -16,3 9,4 7.5,12 -1.5,8 -8.5,14 h 5 q -1,4 -8.5,8.5 -7.5,4.5 -17.5,8.5 -10,4 -13,6 -8,5 -34,9.5 -26,4.5 -33,0.5 -5,-6 -4.5,-10.5 0.5,-4.5 4,-14 3.5,-9.5 3.5,-12.5 1,-6 -5.5,-13 -6.5,-7 -6.5,-12 0,-7 14,-15.5 14,-8.5 10,-21.5 -3,-8 -16,-16 -13,-8 -16,-12 -5,-8 -1.5,-18.5 Q 907,958 914,952 q 2,-2 1.5,-4 -0.5,-2 -3.5,-4.5 -3,-2.5 -5.5,-4 Q 904,938 900,936 l -3,-2 q -11,-5 -20.5,6 -9.5,11 -13.5,26 -7,25 -16,30 -23,8 -29,-1 -5,13 -41,26 -25,9 -58,4 6,1 0,15 -7,15 -19,12 3,6 4,17.5 1,11.5 1,13.5 3,13 12,23 1,1 7,8.5 6,7.5 9.5,13.5 3.5,6 0.5,6 35,-4 50,11 5,5 11.5,17 6.5,12 10.5,17 9,6 14,5.5 5,-0.5 14.5,-5.5 9.5,-5 14.5,-5 14,-1 15.5,11 1.5,12 -7.5,20 12,-1 3,17 -5,7 -8,9 -12,4 -27,-5 -8,-4 2,-8 -1,1 -9.5,-10.5 Q 809,1196 801,1190 q -8,-6 -16,5 -1,1 -5.5,13.5 -4.5,12.5 -9.5,13.5 -8,0 -16,-15 3,8 -11,15 -14,7 -24,8 19,12 -8,27 -7,4 -20.5,5 -13.5,1 -19.5,-4 -5,-7 -5.5,-11.5 -0.5,-4.5 5,-8 5.5,-3.5 10.5,-5.5 5,-2 11.5,-4 6.5,-2 8.5,-3 14,-10 8,-14 -2,-1 -8.5,-3.5 -6.5,-2.5 -11.5,-4.5 -5,-2 -6,-4 -3,-4 0,-14 3,-10 -2,-14 -5,5 -9,17.5 -4,12.5 -7,16.5 7,-9 -25,-6 l -10,1 q -4,0 -16,-2 -12,-2 -20.5,-1 -8.5,1 -13.5,8 -4,8 0,20 1,4 4,2 -4,3 -11,9.5 -7,6.5 -10,8.5 -46,-15 -94,-41 6,-1 12,1 5,2 13,6.5 8,4.5 10,5.5 34,14 42,7 l 5,5 q 14,-16 20,-25 -7,4 -30,1 -20,-6 -22,-12 7,-12 5,-18 -4,3 -11.5,10 -7.5,7 -14.5,11 -7,4 -15,5 -16,0 -22,-1 -146,-80 -235,-222 7,-7 12,-8 4,-1 5,-9 1,-8 2.5,-11 1.5,-3 11.5,3 9,-8 3,-19 1,1 44,-27 19,-17 21,-21 3,-11 -10,-18 -1,2 -9,9 -8,7 -9,4 -3,-5 0.5,-18.5 Q 301,850 308,851 301,851 298.5,835 296,819 296,799.5 296,780 295,776 l 2,-1 q -3,-12 5.5,-34.5 Q 311,718 324,721 q -13,-3 20,-43 6,-8 8,-9 3,-2 12,-7.5 9,-5.5 15,-10 6,-4.5 10,-10.5 4,-5 10,-22.5 6,-17.5 14,-23.5 -2,-6 9.5,-20 11.5,-14 10.5,-23 -1,0 -2.5,-1 -1.5,-1 -2.5,-1 3,-7 15.5,-14 12.5,-7 15.5,-13 1,-3 2,-10 1,-7 3,-11 2,-4 8,-2 2,20 -24,62 -15,25 -17,29 -3,5 -5.5,15.5 -2.5,10.5 -4.5,14.5 2,0 6,-1.5 4,-1.5 8.5,-3.5 4.5,-2 7.5,-4 3,-2 2,-3 -3,-7 2,-17.5 5,-10.5 12,-18.5 7,-8 17,-19 10,-11 12,-13 6,-6 14,-19.5 8,-13.5 0,-13.5 9,0 20,-10 11,-10 17,-20 5,-8 8,-26 3,-18 5,-24 2,-7 8.5,-13.5 Q 567,408 573,405 l 16,-8 q 0,0 13,-7 5,-2 18.5,-10.5 Q 634,371 642,368 q 10,-4 16,-4 6,0 14.5,2.5 8.5,2.5 13.5,3.5 15,2 29,-15 14,-17 21,-21 36,-19 55,-11 -2,-1 0.5,-7.5 2.5,-6.5 8,-15.5 5.5,-9 9,-14.5 3.5,-5.5 5.5,-8.5 5,-6 18,-15 13,-9 18,-15 6,4 7,9 -3,-8 7,-20 10,-12 18,-10 14,3 14,32 -31,-15 -49,18 0,1 -2.5,5.5 -2.5,4.5 -4,8.5 -1.5,4 -2.5,8.5 -1,4.5 0,7.5 1,3 5,3 9,0 10,3.5 1,3.5 -2,12.5 -3,9 -4,13 -1,8 -11,20 -10,12 -12,15 -5,-9 -16,-8 -11,1 -16,9 0,-1 -1.5,-5.5 -1.5,-4.5 -1.5,-6.5 -13,0 -15,1 1,3 2.5,17.5 1.5,14.5 3.5,22.5 1,4 5.5,12 4.5,8 7.5,14.5 3,6.5 4,12.5 1,6 -4.5,9.5 -5.5,3.5 -17.5,2.5 -19,-1 -26,-20 -1,-3 -3,-10.5 -2,-7.5 -5,-11.5 -3,-4 -9,-7 -7,-3 -24,-2 -17,1 -24,5 -13,8 -22.5,29 -9.5,21 -9.5,37 0,10 2.5,26.5 2.5,16.5 3,25 0.5,8.5 -5.5,24.5 3,2 9,9.5 6,7.5 10,10.5 2,1 4.5,1.5 2.5,0.5 4.5,0 2,-0.5 4,1.5 2,2 3,6 -1,1 -4,3 -3,3 -4,3 7,-3 28.5,1.5 21.5,4.5 27.5,-1.5 15,-11 22,2 0,1 -2.5,9.5 -2.5,8.5 -0.5,13.5 5,-27 29,-9 3,-3 15.5,-5 12.5,-2 17.5,-5 3,-2 7,-5.5 4,-3.5 5.5,-4.5 1.5,-1 5,0.5 3.5,1.5 8.5,6.5 10,-14 12,-24 11,-40 19,-44 7,-3 11,-2 4,1 4.5,9.5 0.5,8.5 0,14 Q 888,547 887,554 l -1,8 v 18 l -1,8 q -15,3 -18.5,12 -3.5,9 1.5,18.5 5,9.5 15,18.5 1,1 8,3.5 7,2.5 15.5,6.5 8.5,4 12.5,8 21,19 15,35 7,0 11,9 -1,0 -5,3 -4,3 -7.5,5 -3.5,2 -4.5,2 9,5 2,16 5,3 7.5,11 2.5,8 7.5,10 9,-12 21,-2 7,8 1,16 5,7 20.5,10.5 15.5,3.5 18.5,9.5 7,-2 8,2 1,4 1,12 0,8 3,12 4,5 15,9 11,4 13,5 l 17,11 q 3,4 0,4 18,-2 31,11 10,11 -6,20 3,6 -3,9.5 -6,3.5 -15,5.5 3,1 11.5,0.5 8.5,-0.5 10.5,1.5 15,10 -7,16 -17,5 -43,-12 z M 879,10 q 206,36 351,189 -3,3 -12.5,4.5 -9.5,1.5 -12.5,3.5 -18,7 -24,8 1,7 -2.5,13 -3.5,6 -8,9 -4.5,3 -12.5,8 -8,5 -11,7 -2,2 -7,6 -5,4 -7,5.5 -2,1.5 -7.5,4.5 -5.5,3 -8.5,2 -3,-1 -10,-1 l -3,-1 q -3,-1 -5.5,-2.5 -2.5,-1.5 -5.5,-3 -3,-1.5 -4,-3 -1,-1.5 0,-2.5 -21,17 -36,22 -5,1 -11,5.5 -6,4.5 -10.5,7 -4.5,2.5 -10,1.5 -5.5,-1 -11.5,-7 -5,-5 -6,-15 -1,-10 -2,-13 -7,5 0,17.5 7,12.5 2,18.5 -3,6 -10.5,4.5 -7.5,-1.5 -12,-4.5 -4.5,-3 -11.5,-8.5 -7,-5.5 -9,-6.5 -2,-1 -8.5,-5.5 -6.5,-4.5 -8.5,-7.5 -3,-4 -6,-12 -3,-8 -5,-11 -2,4 -11.5,6.5 -9.5,2.5 -9.5,5.5 2,-10 4,-35 2,-25 5,-38 7,-31 -12,-48 -27,-25 -29,-40 -4,-22 12,-26 0,-7 -8,-20.5 -8,-13.5 -7,-21.5 0,-6 2,-16 z"
         transform="matrix(0.05,0,0,-0.05,0,76.8)"
         style="stroke-width:0.01486988" />
    </g>
  </g>
</svg>
