<?xml version="1.0" encoding="UTF-8" standalone="no"?>
<!-- Created with Inkscape (http://www.inkscape.org/) -->

<svg
   xmlns:dc="http://purl.org/dc/elements/1.1/"
   xmlns:cc="http://creativecommons.org/ns#"
   xmlns:rdf="http://www.w3.org/1999/02/22-rdf-syntax-ns#"
   xmlns:svg="http://www.w3.org/2000/svg"
   xmlns="http://www.w3.org/2000/svg"
   xmlns:xlink="http://www.w3.org/1999/xlink"
   xmlns:sodipodi="http://sodipodi.sourceforge.net/DTD/sodipodi-0.dtd"
   xmlns:inkscape="http://www.inkscape.org/namespaces/inkscape"
   width="166"
   height="92.000015"
   viewBox="0 0 43.920832 24.341671"
   version="1.1"
   id="svg315793"
   inkscape:version="0.92.2 5c3e80d, 2017-08-06"
   sodipodi:docname="avatars.svg">
  <defs
     id="defs315787">
    <symbol
       id="user"
       class="Web-Application-Icons">
      <title
         id="title321026">User</title>
      <path
         transform="matrix(0.05,0,0,-0.05,0,76.8)"
         d="M 1408,131 Q 1408,11 1335,-58.5 1262,-128 1141,-128 H 267 Q 146,-128 73,-58.5 0,11 0,131 0,184 3.5,234.5 7,285 17.5,343.5 28,402 44,452 q 16,50 43,97.5 27,47.5 62,81 35,33.5 85.5,53.5 50.5,20 111.5,20 9,0 42,-21.5 33,-21.5 74.5,-48 41.5,-26.5 108,-48 Q 637,565 704,565 q 67,0 133.5,21.5 66.5,21.5 108,48 41.5,26.5 74.5,48 33,21.5 42,21.5 61,0 111.5,-20 50.5,-20 85.5,-53.5 35,-33.5 62,-81 27,-47.5 43,-97.5 16,-50 26.5,-108.5 10.5,-58.5 14,-109 Q 1408,184 1408,131 Z m -320,893 Q 1088,865 975.5,752.5 863,640 704,640 545,640 432.5,752.5 320,865 320,1024 320,1183 432.5,1295.5 545,1408 704,1408 863,1408 975.5,1295.5 1088,1183 1088,1024 Z"
         id="path321028"
         inkscape:connector-curvature="0" />
    </symbol>
    <symbol
       id="globe"
       class="Web-Application-Icons">
      <title
         id="title743674">Globe</title>
      <path
         transform="matrix(0.05,0,0,-0.05,0,76.8)"
         d="M768 1408q209 0 385.5 -103t279.5 -279.5t103 -385.5t-103 -385.5t-279.5 -279.5t-385.5 -103t-385.5 103t-279.5 279.5t-103 385.5t103 385.5t279.5 279.5t385.5 103zM1042 887q-2 -1 -9.5 -9.5t-13.5 -9.5q2 0 4.5 5t5 11t3.5 7q6 7 22 15q14 6 52 12q34 8 51 -11 q-2 2 9.5 13t14.5 12q3 2 15 4.5t15 7.5l2 22q-12 -1 -17.5 7t-6.5 21q0 -2 -6 -8q0 7 -4.5 8t-11.5 -1t-9 -1q-10 3 -15 7.5t-8 16.5t-4 15q-2 5 -9.5 10.5t-9.5 10.5q-1 2 -2.5 5.5t-3 6.5t-4 5.5t-5.5 2.5t-7 -5t-7.5 -10t-4.5 -5q-3 2 -6 1.5t-4.5 -1t-4.5 -3t-5 -3.5 q-3 -2 -8.5 -3t-8.5 -2q15 5 -1 11q-10 4 -16 3q9 4 7.5 12t-8.5 14h5q-1 4 -8.5 8.5t-17.5 8.5t-13 6q-8 5 -34 9.5t-33 0.5q-5 -6 -4.5 -10.5t4 -14t3.5 -12.5q1 -6 -5.5 -13t-6.5 -12q0 -7 14 -15.5t10 -21.5q-3 -8 -16 -16t-16 -12q-5 -8 -1.5 -18.5t10.5 -16.5 q2 -2 1.5 -4t-3.5 -4.5t-5.5 -4t-6.5 -3.5l-3 -2q-11 -5 -20.5 6t-13.5 26q-7 25 -16 30q-23 8 -29 -1q-5 13 -41 26q-25 9 -58 4q6 1 0 15q-7 15 -19 12q3 6 4 17.5t1 13.5q3 13 12 23q1 1 7 8.5t9.5 13.5t0.5 6q35 -4 50 11q5 5 11.5 17t10.5 17q9 6 14 5.5t14.5 -5.5 t14.5 -5q14 -1 15.5 11t-7.5 20q12 -1 3 17q-5 7 -8 9q-12 4 -27 -5q-8 -4 2 -8q-1 1 -9.5 -10.5t-16.5 -17.5t-16 5q-1 1 -5.5 13.5t-9.5 13.5q-8 0 -16 -15q3 8 -11 15t-24 8q19 12 -8 27q-7 4 -20.5 5t-19.5 -4q-5 -7 -5.5 -11.5t5 -8t10.5 -5.5t11.5 -4t8.5 -3 q14 -10 8 -14q-2 -1 -8.5 -3.5t-11.5 -4.5t-6 -4q-3 -4 0 -14t-2 -14q-5 5 -9 17.5t-7 16.5q7 -9 -25 -6l-10 1q-4 0 -16 -2t-20.5 -1t-13.5 8q-4 8 0 20q1 4 4 2q-4 3 -11 9.5t-10 8.5q-46 -15 -94 -41q6 -1 12 1q5 2 13 6.5t10 5.5q34 14 42 7l5 5q14 -16 20 -25 q-7 4 -30 1q-20 -6 -22 -12q7 -12 5 -18q-4 3 -11.5 10t-14.5 11t-15 5q-16 0 -22 -1q-146 -80 -235 -222q7 -7 12 -8q4 -1 5 -9t2.5 -11t11.5 3q9 -8 3 -19q1 1 44 -27q19 -17 21 -21q3 -11 -10 -18q-1 2 -9 9t-9 4q-3 -5 0.5 -18.5t10.5 -12.5q-7 0 -9.5 -16t-2.5 -35.5 t-1 -23.5l2 -1q-3 -12 5.5 -34.5t21.5 -19.5q-13 -3 20 -43q6 -8 8 -9q3 -2 12 -7.5t15 -10t10 -10.5q4 -5 10 -22.5t14 -23.5q-2 -6 9.5 -20t10.5 -23q-1 0 -2.5 -1t-2.5 -1q3 -7 15.5 -14t15.5 -13q1 -3 2 -10t3 -11t8 -2q2 20 -24 62q-15 25 -17 29q-3 5 -5.5 15.5 t-4.5 14.5q2 0 6 -1.5t8.5 -3.5t7.5 -4t2 -3q-3 -7 2 -17.5t12 -18.5t17 -19t12 -13q6 -6 14 -19.5t0 -13.5q9 0 20 -10t17 -20q5 -8 8 -26t5 -24q2 -7 8.5 -13.5t12.5 -9.5l16 -8t13 -7q5 -2 18.5 -10.5t21.5 -11.5q10 -4 16 -4t14.5 2.5t13.5 3.5q15 2 29 -15t21 -21 q36 -19 55 -11q-2 -1 0.5 -7.5t8 -15.5t9 -14.5t5.5 -8.5q5 -6 18 -15t18 -15q6 4 7 9q-3 -8 7 -20t18 -10q14 3 14 32q-31 -15 -49 18q0 1 -2.5 5.5t-4 8.5t-2.5 8.5t0 7.5t5 3q9 0 10 3.5t-2 12.5t-4 13q-1 8 -11 20t-12 15q-5 -9 -16 -8t-16 9q0 -1 -1.5 -5.5t-1.5 -6.5 q-13 0 -15 1q1 3 2.5 17.5t3.5 22.5q1 4 5.5 12t7.5 14.5t4 12.5t-4.5 9.5t-17.5 2.5q-19 -1 -26 -20q-1 -3 -3 -10.5t-5 -11.5t-9 -7q-7 -3 -24 -2t-24 5q-13 8 -22.5 29t-9.5 37q0 10 2.5 26.5t3 25t-5.5 24.5q3 2 9 9.5t10 10.5q2 1 4.5 1.5t4.5 0t4 1.5t3 6q-1 1 -4 3 q-3 3 -4 3q7 -3 28.5 1.5t27.5 -1.5q15 -11 22 2q0 1 -2.5 9.5t-0.5 13.5q5 -27 29 -9q3 -3 15.5 -5t17.5 -5q3 -2 7 -5.5t5.5 -4.5t5 0.5t8.5 6.5q10 -14 12 -24q11 -40 19 -44q7 -3 11 -2t4.5 9.5t0 14t-1.5 12.5l-1 8v18l-1 8q-15 3 -18.5 12t1.5 18.5t15 18.5q1 1 8 3.5 t15.5 6.5t12.5 8q21 19 15 35q7 0 11 9q-1 0 -5 3t-7.5 5t-4.5 2q9 5 2 16q5 3 7.5 11t7.5 10q9 -12 21 -2q7 8 1 16q5 7 20.5 10.5t18.5 9.5q7 -2 8 2t1 12t3 12q4 5 15 9t13 5l17 11q3 4 0 4q18 -2 31 11q10 11 -6 20q3 6 -3 9.5t-15 5.5q3 1 11.5 0.5t10.5 1.5 q15 10 -7 16q-17 5 -43 -12zM879 10q206 36 351 189q-3 3 -12.5 4.5t-12.5 3.5q-18 7 -24 8q1 7 -2.5 13t-8 9t-12.5 8t-11 7q-2 2 -7 6t-7 5.5t-7.5 4.5t-8.5 2t-10 -1l-3 -1q-3 -1 -5.5 -2.5t-5.5 -3t-4 -3t0 -2.5q-21 17 -36 22q-5 1 -11 5.5t-10.5 7t-10 1.5t-11.5 -7 q-5 -5 -6 -15t-2 -13q-7 5 0 17.5t2 18.5q-3 6 -10.5 4.5t-12 -4.5t-11.5 -8.5t-9 -6.5t-8.5 -5.5t-8.5 -7.5q-3 -4 -6 -12t-5 -11q-2 4 -11.5 6.5t-9.5 5.5q2 -10 4 -35t5 -38q7 -31 -12 -48q-27 -25 -29 -40q-4 -22 12 -26q0 -7 -8 -20.5t-7 -21.5q0 -6 2 -16z"
         id="path743676" />
    </symbol>
  </defs>
  <sodipodi:namedview
     id="base"
     pagecolor="#ffffff"
     bordercolor="#666666"
     borderopacity="1.0"
     inkscape:pageopacity="0.0"
     inkscape:pageshadow="2"
     inkscape:zoom="1"
     inkscape:cx="83.35039"
     inkscape:cy="-211.74013"
     inkscape:document-units="px"
     inkscape:current-layer="layer1"
     showgrid="false"
     units="px"
     fit-margin-top="10"
     fit-margin-left="10"
     fit-margin-right="10"
     fit-margin-bottom="10"
     inkscape:window-width="2560"
     inkscape:window-height="1376"
     inkscape:window-x="0"
     inkscape:window-y="27"
     inkscape:window-maximized="1" />
  <metadata
     id="metadata315790">
    <rdf:RDF>
      <cc:Work
         rdf:about="">
        <dc:format>image/svg+xml</dc:format>
        <dc:type
           rdf:resource="http://purl.org/dc/dcmitype/StillImage" />
        <dc:title />
      </cc:Work>
    </rdf:RDF>
  </metadata>
  <g
     inkscape:label="Layer 1"
     inkscape:groupmode="layer"
     id="layer1"
     transform="translate(-5.5562502,-70.252078)">
    <rect
       style="opacity:1;fill:#58595b;fill-opacity:1;stroke:none;stroke-width:0.26458332;stroke-linecap:round;stroke-linejoin:round;stroke-miterlimit:4;stroke-dasharray:none;stroke-dashoffset:5.99999952"
       id="rect395709"
       width="19.049999"
       height="19.049999"
       x="8.2020836"
       y="72.897911"
       inkscape:export-filename="/home/duffy/Repositories/patternlab/public/images/avatar_72.png"
       inkscape:export-xdpi="96"
       inkscape:export-ydpi="96" />
    <use
       id="use397279"
       xlink:href="#user"
       transform="matrix(0.20257162,0,0,0.20257162,10.596562,73.493218)"
       x="0"
       y="0"
       width="100%"
       height="100%"
       style="fill:#e7e8e9;stroke-width:1.30612242" />
    <text
       xml:space="preserve"
       style="font-style:normal;font-weight:normal;font-size:3.79049802px;line-height:2.36906123px;font-family:Sans;letter-spacing:0px;word-spacing:0px;fill:#58595b;fill-opacity:1;stroke:none;stroke-width:0.26458332px;stroke-linecap:butt;stroke-linejoin:miter;stroke-opacity:1"
       x="12.004852"
       y="87.979156"
       id="text397295"><tspan
         sodipodi:role="line"
         id="tspan397293"
         x="12.004852"
         y="87.979156"
         style="font-style:normal;font-variant:normal;font-weight:normal;font-stretch:normal;font-family:Montserrat;-inkscape-font-specification:Montserrat;fill:#58595b;stroke-width:0.26458332px">72x72</tspan></text>
    <rect
       y="82.422913"
       x="29.36875"
       height="9.5249996"
       width="9.5249996"
       id="rect397297"
       style="opacity:1;fill:#58595b;fill-opacity:1;stroke:none;stroke-width:0.26458332;stroke-linecap:round;stroke-linejoin:round;stroke-miterlimit:4;stroke-dasharray:none;stroke-dashoffset:5.99999952"
       inkscape:export-filename="/home/duffy/Repositories/patternlab/public/images/avatar_36.png"
       inkscape:export-xdpi="96"
       inkscape:export-ydpi="96" />
    <use
       style="fill:#e7e8e9;stroke-width:2.61224484"
       height="100%"
       width="100%"
       y="0"
       x="0"
       transform="matrix(0.10128581,0,0,0.10128581,30.565989,82.720564)"
       xlink:href="#user"
       id="use397299" />
    <text
       id="text397303"
       y="90.345337"
       x="32.292809"
       style="font-style:normal;font-weight:normal;font-size:3.0158453px;line-height:1.88490319px;font-family:Sans;letter-spacing:0px;word-spacing:0px;fill:#58595b;fill-opacity:1;stroke:none;stroke-width:0.26458329px;stroke-linecap:butt;stroke-linejoin:miter;stroke-opacity:1"
       xml:space="preserve"><tspan
         style="font-style:normal;font-variant:normal;font-weight:normal;font-stretch:normal;font-family:Montserrat;-inkscape-font-specification:Montserrat;fill:#58595b;stroke-width:0.26458329px"
         y="90.345337"
         x="32.292809"
         id="tspan397301"
         sodipodi:role="line">36</tspan></text>
    <rect
       style="opacity:1;fill:#58595b;fill-opacity:1;stroke:none;stroke-width:0.26458332;stroke-linecap:round;stroke-linejoin:round;stroke-miterlimit:4;stroke-dasharray:none;stroke-dashoffset:5.99999952"
       id="rect397305"
       width="6.3499999"
       height="6.3499999"
       x="40.481251"
       y="85.597916"
       inkscape:export-filename="/home/duffy/Repositories/patternlab/public/images/avatar_24.png"
       inkscape:export-xdpi="96"
       inkscape:export-ydpi="96" />
    <use
       id="use397307"
       xlink:href="#user"
       transform="matrix(0.06752388,0,0,0.06752388,41.279409,85.796346)"
       x="0"
       y="0"
       width="100%"
       height="100%"
       style="fill:#e7e8e9;stroke-width:3.91836715" />
    <text
       xml:space="preserve"
       style="font-style:normal;font-weight:normal;font-size:1.76247799px;line-height:1.10154867px;font-family:Sans;letter-spacing:0px;word-spacing:0px;fill:#58595b;fill-opacity:1;stroke:none;stroke-width:0.26458329px;stroke-linecap:butt;stroke-linejoin:miter;stroke-opacity:1"
       x="42.337368"
       y="90.880768"
       id="text397311"><tspan
         sodipodi:role="line"
         id="tspan397309"
         x="42.337368"
         y="90.880768"
         style="font-style:normal;font-variant:normal;font-weight:normal;font-stretch:normal;font-size:2.11666656px;font-family:Montserrat;-inkscape-font-specification:Montserrat;fill:#58595b;stroke-width:0.26458329px">24</tspan></text>
    <rect
       inkscape:export-ydpi="96"
       inkscape:export-xdpi="96"
       inkscape:export-filename="/home/duffy/Repositories/patternlab/public/images/sample/library-missing-thumb.png"
       y="35.856239"
       x="8.2020836"
       height="19.049999"
       width="19.049999"
       id="rect817585"
       style="opacity:1;fill:#58595b;fill-opacity:1;stroke:none;stroke-width:0.26458332;stroke-linecap:round;stroke-linejoin:round;stroke-miterlimit:4;stroke-dasharray:none;stroke-dashoffset:5.99999952" />
    <use
       id="use819155"
       xlink:href="#globe"
       transform="matrix(0.18534613,0,0,0.18534613,10.609792,37.077732)"
       x="0"
       y="0"
       width="100%"
       height="100%"
       style="fill:#e7e8e9;fill-opacity:1;stroke-width:1.42750931" />
  </g>
</svg>
